<?xml version="1.0" standalone="no"?>
<!DOCTYPE svg PUBLIC "-//W3C//DTD SVG 20010904//EN"
 "http://www.w3.org/TR/2001/REC-SVG-20010904/DTD/svg10.dtd">
<svg version="1.0" xmlns="http://www.w3.org/2000/svg"
 width="850.000000pt" height="570.000000pt" viewBox="0 0 850.000000 570.000000"
 preserveAspectRatio="xMidYMid meet">

<g transform="translate(0.000000,570.000000) scale(0.100000,-0.100000)"
fill="#000000" stroke="none">
<path d="M5525 5114 c-110 -24 -222 -57 -260 -77 -11 -5 -49 -18 -85 -27 -96
-26 -290 -103 -332 -132 -21 -14 -60 -31 -88 -38 -30 -7 -54 -20 -61 -31 -12
-22 -60 -49 -89 -49 -11 0 -23 -7 -27 -16 -3 -9 -13 -14 -23 -11 -9 2 -22 -4
-29 -14 -6 -11 -18 -19 -26 -19 -8 0 -17 -10 -20 -23 -8 -29 -233 -254 -259
-259 -11 -2 -23 -17 -30 -38 -8 -24 -23 -41 -50 -57 -26 -14 -52 -42 -75 -81
-54 -89 -89 -131 -116 -138 -15 -4 -22 -11 -18 -20 3 -8 -2 -25 -11 -39 -9
-13 -16 -40 -16 -59 0 -28 -9 -43 -50 -83 -39 -38 -50 -55 -50 -80 0 -18 -11
-48 -24 -68 -13 -19 -27 -54 -31 -78 -9 -51 -34 -117 -45 -117 -5 0 -10 -10
-12 -22 -2 -14 -11 -24 -24 -26 -17 -2 -20 -10 -20 -48 l1 -45 -56 -23 c-76
-31 -120 -67 -192 -155 -118 -148 -158 -181 -252 -212 -37 -12 -51 -21 -53
-37 -4 -29 -45 -29 -72 -2 -11 11 -24 20 -30 20 -5 0 -10 -9 -10 -20 0 -13 7
-20 18 -20 10 0 22 -4 28 -9 12 -12 101 4 157 28 62 27 116 75 200 176 41 50
87 102 103 116 38 35 103 69 131 69 21 0 22 -3 17 -52 -3 -29 -9 -62 -14 -73
-5 -11 -14 -72 -20 -135 -16 -171 -18 -198 -19 -281 -1 -71 -3 -77 -32 -105
-17 -16 -62 -68 -100 -115 -116 -145 -222 -197 -379 -186 -41 3 -84 7 -95 9
-26 4 -32 -28 -7 -41 36 -19 135 -29 197 -19 126 19 198 70 327 229 86 107
102 110 106 24 2 -33 7 -64 13 -69 5 -6 9 -30 9 -55 -1 -55 40 -223 56 -233 7
-4 15 -27 18 -51 7 -42 6 -44 -61 -113 -37 -39 -99 -105 -137 -147 -95 -108
-181 -147 -322 -147 -105 0 -170 31 -366 175 -112 81 -177 106 -278 106 -92 0
-118 -5 -191 -42 -37 -18 -80 -54 -127 -104 -40 -43 -72 -81 -72 -86 0 -25 38
-2 95 56 40 42 83 74 121 92 54 25 69 28 174 28 138 0 176 -14 313 -118 116
-89 171 -122 236 -141 115 -34 260 -10 352 58 26 19 84 80 128 135 119 146
181 188 181 120 0 -23 9 -40 36 -64 27 -25 34 -38 29 -54 -4 -14 -1 -23 9 -27
9 -3 16 -17 16 -30 0 -14 7 -27 15 -30 8 -4 15 -18 15 -33 0 -15 15 -49 33
-76 35 -53 36 -55 60 -103 23 -46 22 -49 -20 -57 -108 -20 -182 -72 -295 -207
-49 -60 -108 -122 -130 -139 -73 -52 -205 -78 -308 -59 -82 15 -134 42 -250
129 -52 39 -121 84 -153 100 -73 37 -164 58 -189 42 -9 -6 -19 -7 -22 -2 -3 5
-17 6 -31 3 -18 -3 -25 -11 -25 -27 0 -22 3 -23 103 -27 126 -4 172 -23 315
-132 55 -42 131 -91 169 -109 63 -29 76 -32 168 -32 88 0 107 4 158 27 78 37
107 62 207 181 121 144 167 174 303 202 15 3 27 12 27 20 0 37 32 5 130 -129
65 -89 114 -146 128 -150 12 -4 22 -11 22 -16 0 -18 63 -81 101 -100 21 -11
44 -28 51 -39 7 -10 30 -29 50 -41 21 -12 40 -30 43 -40 3 -10 16 -21 29 -24
13 -3 65 -33 116 -66 129 -85 193 -120 219 -120 13 0 32 -11 42 -25 12 -14 35
-27 56 -31 20 -4 51 -17 70 -30 33 -22 129 -57 252 -90 43 -12 65 -23 68 -35
4 -14 10 -16 30 -8 13 5 38 9 55 9 29 0 30 -1 24 -35 -7 -34 -6 -35 19 -25 15
6 40 10 56 10 17 0 32 6 35 15 7 17 45 20 61 4 9 -9 77 -9 218 2 34 2 98 -19
107 -35 14 -25 28 -19 44 20 15 36 16 36 60 29 29 -4 44 -3 44 5 0 6 16 10 38
9 75 -3 197 14 227 33 20 12 49 18 86 18 39 0 61 5 70 16 7 8 21 13 31 11 10
-3 37 8 60 24 24 16 49 29 56 29 6 0 12 5 12 10 0 6 11 15 25 20 14 5 25 16
25 25 0 18 31 20 49 3 10 -11 15 -9 27 7 13 17 17 18 36 6 20 -12 24 -11 36 8
8 11 25 21 37 21 12 0 28 7 35 15 7 8 18 15 26 15 7 0 26 16 41 35 21 26 36
35 59 35 34 0 54 15 54 41 0 12 6 16 19 12 13 -3 21 2 26 16 4 15 15 21 34 21
34 0 49 15 57 58 7 35 41 62 78 62 15 0 27 7 31 19 3 10 19 24 35 31 17 7 30
20 30 29 0 9 6 23 12 29 7 7 13 20 13 30 0 10 9 18 23 20 12 2 22 8 22 13 0 5
11 9 25 9 20 0 25 5 25 24 0 38 10 56 31 56 20 0 53 45 105 145 18 34 36 55
49 57 13 2 31 24 50 60 17 31 40 67 52 80 11 13 28 38 37 56 9 17 21 32 25 32
5 0 15 17 22 37 7 21 34 75 61 121 54 90 78 150 78 191 0 15 6 35 14 46 20 29
74 188 69 203 -3 6 5 33 17 58 15 29 26 78 31 137 5 51 11 108 14 127 3 19 2
86 -2 148 -5 62 -5 119 0 127 5 10 3 15 -8 15 -8 0 -15 -7 -15 -15 0 -8 -4
-15 -9 -15 -21 0 -69 -191 -50 -198 13 -5 11 -32 -12 -143 -17 -82 -18 -106
-9 -135 10 -30 9 -38 -5 -54 -15 -17 -16 -22 -5 -36 12 -13 9 -19 -15 -38 -19
-15 -32 -40 -41 -74 -8 -29 -27 -80 -43 -115 -16 -35 -33 -77 -36 -93 -11 -48
-49 -114 -65 -113 -30 3 -34 -1 -15 -15 17 -12 18 -17 7 -41 -10 -23 -18 -26
-42 -23 -27 4 -29 3 -15 -12 22 -24 19 -43 -15 -97 -16 -26 -30 -53 -30 -60 0
-8 -17 -31 -37 -51 -21 -21 -54 -60 -73 -87 -23 -32 -55 -60 -90 -80 -42 -24
-54 -36 -52 -52 2 -13 -8 -30 -28 -46 -16 -14 -30 -34 -30 -45 0 -21 -119
-132 -142 -132 -7 0 -22 -19 -33 -42 -18 -40 -24 -44 -68 -50 -54 -7 -147 -69
-147 -98 0 -21 -69 -68 -113 -77 -17 -3 -45 -19 -61 -34 -15 -16 -34 -29 -41
-29 -8 0 -27 -11 -43 -25 -17 -14 -35 -25 -42 -25 -7 0 -24 -6 -38 -14 -56
-28 -166 -45 -294 -45 -106 1 -128 3 -128 15 0 22 -60 -14 -71 -43 -7 -19 -16
-23 -49 -23 -29 0 -40 -4 -40 -15 0 -17 -35 -20 -46 -4 -3 6 -14 -2 -25 -20
-10 -16 -28 -35 -41 -42 -24 -13 -245 -22 -263 -11 -5 3 -23 5 -40 4 -16 -1
-37 2 -45 8 -13 8 -13 13 -2 31 7 11 10 24 7 27 -8 8 -35 -27 -35 -45 0 -11
-14 -13 -57 -11 -54 3 -58 5 -61 29 -3 22 2 29 27 37 17 6 31 13 31 16 0 9
-46 -8 -69 -26 -32 -25 -45 -23 -74 12 -18 21 -27 25 -30 16 -3 -8 3 -16 15
-19 11 -3 18 -12 16 -19 -6 -17 -48 -23 -48 -7 0 8 -7 6 -20 -6 -27 -24 -99
-16 -175 19 -48 23 -74 28 -127 28 -40 -1 -68 3 -68 9 0 13 -63 39 -95 39 -14
0 -25 4 -25 10 0 5 -17 18 -37 29 -21 10 -55 33 -77 50 -21 17 -49 31 -61 31
-14 0 -34 13 -51 33 -15 17 -51 46 -81 63 -30 17 -60 41 -66 55 -10 18 -22 25
-52 27 -31 2 -49 12 -83 45 -57 56 -128 144 -149 185 -10 20 -24 32 -37 32
-14 0 -31 18 -53 54 -18 30 -33 59 -33 65 0 7 -9 15 -19 19 -26 10 -121 100
-121 115 0 7 -11 28 -25 47 -14 19 -25 40 -25 48 0 16 -39 82 -81 136 -14 19
-38 77 -54 131 -30 103 -28 114 20 115 35 1 52 17 38 37 -6 10 -15 17 -20 17
-96 -17 -93 -17 -92 8 1 12 -10 57 -24 98 -14 41 -31 112 -38 158 -12 80 -13
82 -41 82 -23 0 -28 4 -28 25 0 18 5 25 20 25 18 0 20 7 20 70 l0 69 38 10
c20 6 43 11 50 11 14 0 16 19 3 38 -6 10 -22 11 -59 6 l-52 -7 0 37 c0 30 5
38 25 46 25 10 33 34 15 45 -5 3 -10 23 -10 43 -1 59 55 410 66 421 3 3 18 0
34 -6 25 -10 30 -9 35 8 9 27 -1 37 -30 31 -19 -3 -25 0 -25 13 0 27 30 125
50 165 10 19 22 57 26 85 5 35 15 58 35 78 16 16 29 37 29 46 0 10 9 30 20 44
11 14 20 29 20 34 0 6 9 21 20 34 65 77 105 137 109 168 4 24 14 39 35 51 17
9 51 51 81 99 28 45 67 94 86 109 18 15 40 34 47 44 7 10 38 34 68 53 34 22
59 46 65 63 5 15 29 39 54 56 25 15 58 44 72 63 18 23 32 33 44 30 10 -3 25 4
35 14 9 10 25 21 35 24 10 3 19 16 21 28 2 14 14 24 36 31 17 5 32 13 32 17 0
5 4 9 10 9 5 0 25 10 43 23 19 13 66 34 103 46 38 13 103 39 144 59 72 35 107
45 197 58 24 4 48 13 54 20 6 8 22 14 36 14 13 0 47 10 75 22 40 17 54 19 69
10 15 -9 25 -8 51 7 34 19 224 38 351 34 44 -2 57 1 57 12 0 20 34 19 51 -1 7
-9 21 -13 33 -10 12 2 39 -2 61 -10 51 -18 212 -27 221 -13 4 8 9 7 14 -2 11
-17 88 -27 128 -15 29 8 42 4 122 -37 51 -27 96 -44 105 -41 9 4 24 -1 35 -11
16 -15 22 -15 35 -5 8 7 15 16 15 21 0 13 -49 35 -110 49 -30 7 -65 18 -77 26
-12 7 -68 25 -125 38 -156 37 -171 40 -194 37 -11 -1 -42 3 -70 10 -27 6 -101
13 -164 14 -93 3 -120 0 -143 -13 -27 -16 -29 -16 -38 1 -12 21 -94 24 -166 5
-35 -8 -50 -8 -64 0 -10 7 -20 12 -21 11 -2 0 -52 -11 -113 -25z m2675 -2244
c0 -5 -4 -10 -10 -10 -5 0 -10 5 -10 10 0 6 5 10 10 10 6 0 10 -4 10 -10z"/>
<path d="M6840 4931 c0 -16 60 -53 88 -55 30 -1 43 17 17 22 -9 2 -25 12 -36
23 -19 19 -69 26 -69 10z"/>
<path d="M7007 4863 c-12 -11 14 -33 39 -33 16 0 24 -6 24 -17 0 -26 95 -93
131 -93 19 0 29 -5 29 -15 0 -15 12 -20 23 -9 10 10 -45 84 -62 84 -10 0 -32
11 -51 25 -19 14 -40 25 -46 25 -7 0 -28 9 -47 20 -18 11 -37 17 -40 13z"/>
<path d="M5020 4725 c0 -13 4 -14 20 -5 11 6 20 13 20 15 0 3 -9 5 -20 5 -11
0 -20 -7 -20 -15z"/>
<path d="M7316 4651 c-11 -18 6 -40 44 -55 22 -9 58 -38 86 -71 26 -30 56 -55
66 -55 13 0 18 -8 18 -25 0 -20 5 -25 24 -25 13 0 26 -7 30 -15 5 -15 36 -10
36 5 0 15 -147 160 -163 160 -8 0 -18 11 -21 25 -4 17 -20 30 -52 45 -52 23
-60 24 -68 11z"/>
<path d="M7656 4351 c-3 -5 10 -28 29 -51 19 -23 35 -47 35 -52 0 -6 22 -34
50 -62 65 -67 120 -142 120 -164 0 -10 18 -47 40 -83 22 -35 45 -76 51 -91 11
-29 32 -37 44 -17 4 6 -12 49 -34 95 -27 54 -40 92 -36 104 5 15 2 20 -13 20
-12 0 -28 17 -46 51 -16 27 -43 66 -62 84 -19 19 -34 38 -34 43 0 5 -11 19
-25 32 -14 13 -25 27 -25 31 0 4 -13 21 -29 38 -29 31 -55 39 -65 22z"/>
<path d="M8067 3683 c-15 -14 -6 -76 18 -123 14 -27 25 -60 25 -72 0 -13 6
-35 14 -49 7 -14 17 -57 21 -95 4 -38 15 -85 25 -104 10 -19 21 -54 25 -77 4
-24 11 -45 16 -49 19 -11 26 40 13 100 -7 34 -13 77 -14 97 0 20 -7 55 -15 78
-8 23 -17 65 -21 94 -8 62 -19 87 -40 87 -22 0 -38 50 -24 73 17 29 -20 63
-43 40z"/>
<path d="M5568 3553 c-28 -30 -48 -88 -48 -140 0 -22 -6 -36 -19 -43 -11 -5
-82 -10 -159 -10 -168 0 -250 -20 -312 -77 -71 -64 -70 -57 -71 -442 0 -382 0
-384 64 -436 43 -34 46 -37 87 -65 19 -13 46 -36 60 -50 29 -29 126 -100 138
-100 4 0 13 -5 19 -11 6 -6 38 -22 70 -35 49 -20 75 -24 169 -24 118 0 169 12
254 58 25 13 56 35 71 48 14 13 30 24 35 24 6 0 25 16 44 35 l34 35 281 0
c154 0 296 4 314 10 45 13 106 72 137 132 24 47 24 48 24 380 0 301 -2 337
-19 373 -32 72 -122 135 -192 135 -22 0 -57 29 -72 60 -11 21 -20 25 -65 28
-55 3 -68 -4 -91 -46 -10 -18 -19 -22 -44 -20 -31 3 -32 5 -39 60 -8 65 -20
93 -55 126 -24 22 -27 22 -307 22 l-282 0 -26 -27z m603 -64 c18 -18 20 -30
17 -105 l-3 -84 194 0 c182 0 196 -1 233 -22 22 -13 51 -41 64 -64 21 -36 24
-53 24 -148 0 -126 -4 -131 -82 -92 -51 25 -57 26 -252 26 -111 0 -206 4 -212
8 -5 4 -23 24 -39 45 -34 46 -113 100 -178 122 -39 13 -89 16 -255 16 -190 -1
-213 -3 -285 -25 -43 -13 -97 -37 -120 -52 -34 -23 -146 -113 -167 -134 -13
-13 -52 -30 -70 -30 -19 0 -20 6 -20 110 0 127 8 149 72 204 l42 36 225 0 226
0 -3 86 c-5 132 -24 124 300 124 258 0 269 -1 289 -21z m-246 -326 c161 -55
271 -212 270 -389 -1 -106 -31 -180 -66 -158 -5 3 -9 29 -9 57 0 149 -100 335
-219 409 -66 41 -91 63 -91 83 0 20 53 20 115 -2z m-268 -14 c144 -34 256
-108 333 -221 59 -87 80 -159 80 -273 0 -152 -42 -256 -142 -350 -100 -95
-182 -132 -313 -141 -130 -10 -212 11 -345 87 -36 20 -100 81 -100 95 0 6 -7
17 -15 24 -43 36 -90 185 -90 285 0 101 40 228 87 279 10 11 18 24 18 28 0 11
78 88 89 88 5 0 14 7 21 15 20 25 133 71 215 88 40 9 116 7 162 -4z"/>
<path d="M5753 3385 c-18 -20 -16 -39 7 -60 16 -15 36 -17 125 -16 59 1 113 5
121 8 18 7 18 50 0 69 -21 20 -235 20 -253 -1z"/>
<path d="M5580 3040 c89 -7 153 -22 175 -41 12 -12 25 -11 25 0 0 5 -25 19
-55 30 -43 16 -76 21 -148 19 l-92 -1 95 -7z"/>
<path d="M5435 3030 c-8 -13 15 -13 35 0 12 8 11 10 -7 10 -12 0 -25 -4 -28
-10z"/>
<path d="M5356 2997 c-22 -12 -41 -28 -44 -35 -3 -11 0 -12 14 -2 11 6 37 22
59 35 50 31 24 33 -29 2z"/>
<path d="M5810 2965 c7 -8 17 -15 22 -15 6 0 5 7 -2 15 -7 8 -17 15 -22 15 -6
0 -5 -7 2 -15z"/>
<path d="M5263 2918 c-35 -37 -82 -124 -92 -172 -3 -17 -5 -68 -4 -112 1 -71
6 -90 36 -150 42 -84 111 -152 198 -194 59 -30 72 -32 169 -32 96 -1 111 2
172 30 37 17 87 49 111 71 86 81 150 269 117 346 -6 15 -9 8 -9 -27 -1 -56
-13 -66 -48 -41 -14 10 -34 23 -43 28 -10 6 -24 15 -31 21 -25 19 -133 53
-200 64 -119 18 -251 -16 -377 -98 -29 -19 -59 -31 -67 -28 -37 14 10 215 60
256 8 7 15 17 15 23 0 6 7 19 17 29 28 31 8 20 -24 -14z"/>
<path d="M5950 2755 c0 -8 4 -15 10 -15 5 0 7 7 4 15 -4 8 -8 15 -10 15 -2 0
-4 -7 -4 -15z"/>
<path d="M2275 3283 c-105 -22 -181 -76 -275 -193 -135 -170 -204 -210 -367
-216 -99 -3 -113 -7 -113 -30 0 -10 14 -15 48 -16 214 -8 289 26 422 192 119
150 176 190 295 211 134 23 250 -10 378 -108 91 -69 169 -123 179 -123 21 0 5
41 -22 55 -17 9 -69 45 -115 81 -114 86 -169 119 -234 138 -51 15 -149 19
-196 9z"/>
<path d="M890 3150 c-109 -18 -183 -70 -290 -201 -44 -53 -94 -109 -112 -124
-42 -35 -120 -71 -175 -80 -37 -6 -43 -10 -43 -31 0 -30 28 -32 105 -5 79 28
142 78 219 175 124 156 201 205 334 214 49 3 75 9 79 18 3 8 13 14 23 14 40 0
27 18 -17 24 -52 7 -61 7 -123 -4z"/>
<path d="M1085 3114 c0 -18 9 -27 42 -39 23 -9 74 -39 115 -68 40 -28 81 -50
91 -49 11 2 17 -3 17 -15 0 -25 54 -54 82 -44 l22 8 -21 11 c-12 7 -29 9 -39
5 -11 -4 -15 -2 -12 7 7 22 -196 169 -274 199 -20 7 -23 5 -23 -15z"/>
<path d="M2900 2995 c0 -16 6 -25 15 -25 9 0 15 9 15 25 0 16 -6 25 -15 25 -9
0 -15 -9 -15 -25z"/>
<path d="M1480 2874 c0 -17 22 -14 28 4 2 7 -3 12 -12 12 -9 0 -16 -7 -16 -16z"/>
<path d="M2323 2665 c-70 -21 -128 -61 -192 -132 -34 -37 -61 -72 -61 -77 0
-5 -10 -20 -21 -33 -20 -20 -20 -23 -5 -29 12 -5 23 1 34 17 37 55 145 157
188 179 26 12 80 28 120 33 127 19 237 -11 341 -90 35 -27 48 -32 54 -22 11
18 -9 39 -37 39 -16 0 -24 6 -24 18 0 21 -82 73 -153 96 -58 19 -185 20 -244
1z"/>
<path d="M955 2536 c-57 -14 -95 -32 -95 -46 0 -6 -9 -10 -20 -10 -24 0 -102
-75 -186 -181 -73 -90 -131 -131 -222 -154 -79 -21 -90 -29 -72 -50 18 -22 66
-13 146 25 60 29 88 56 243 230 36 40 87 85 118 102 29 16 56 34 59 39 3 5 9
7 14 4 5 -3 62 -7 127 -8 111 -2 122 -4 178 -34 33 -17 103 -64 155 -104 101
-77 179 -119 221 -119 14 0 30 -5 37 -12 8 -8 18 -9 36 -1 17 8 27 8 34 1 24
-24 173 23 237 74 21 16 24 23 13 30 -10 7 -9 11 6 23 11 8 15 15 10 15 -20 0
-43 -25 -46 -50 -3 -27 -38 -42 -38 -16 0 13 -4 13 -34 1 -59 -25 -161 -36
-227 -26 -85 14 -148 46 -269 137 -114 86 -156 110 -235 130 -61 17 -123 16
-190 0z"/>
<path d="M2850 2462 c0 -11 6 -25 14 -31 11 -9 15 -7 19 9 3 13 -1 24 -14 30
-16 9 -19 7 -19 -8z"/>
<path d="M1020 1922 c-30 -10 -66 -24 -79 -31 -38 -21 -109 -90 -167 -163
-100 -125 -175 -180 -263 -194 -22 -4 -48 -12 -58 -19 -15 -11 -15 -15 -4 -29
17 -20 62 -14 137 19 66 29 110 69 206 188 84 104 152 157 224 175 112 29 226
22 311 -19 25 -12 93 -58 152 -102 108 -81 180 -120 245 -132 26 -5 36 -4 36
5 0 9 7 7 20 -5 19 -17 27 -18 85 -8 128 22 259 109 267 177 l4 35 -58 -55
c-89 -85 -128 -99 -278 -99 -149 0 -159 4 -339 138 -63 47 -140 96 -170 108
-78 30 -198 35 -271 11z"/>
<path d="M4276 1912 c-8 -25 7 -52 30 -52 18 0 18 17 0 27 -8 4 -16 17 -18 28
-4 19 -5 19 -12 -3z"/>
<path d="M4206 1893 c-28 -15 -29 -16 -11 -29 27 -20 32 -18 37 16 3 17 4 30
4 30 -1 -1 -14 -8 -30 -17z"/>
<path d="M4382 1758 c3 -7 12 -14 21 -16 12 -2 15 1 11 12 -7 19 -38 22 -32 4z"/>
<path d="M7010 1676 c0 -15 27 -29 34 -18 3 5 -4 13 -15 20 -15 10 -19 10 -19
-2z"/>
<path d="M2375 1359 c-5 -23 -11 -30 -25 -26 -21 5 -25 2 -63 -40 -20 -22 -27
-37 -23 -51 6 -18 16 -11 82 55 53 55 71 79 62 85 -21 13 -26 10 -33 -23z"/>
<path d="M1115 1317 c-105 -35 -157 -77 -275 -222 -98 -119 -151 -153 -282
-180 -30 -6 -36 -26 -15 -43 9 -8 27 -8 63 2 105 28 160 68 255 187 138 173
207 212 374 213 130 1 175 -17 324 -129 133 -99 194 -131 276 -144 138 -21
259 22 363 128 57 58 62 66 43 69 -15 3 -38 -11 -72 -43 -27 -25 -75 -58 -107
-73 -51 -24 -69 -27 -167 -27 -141 0 -172 12 -329 128 -163 121 -207 140 -321
144 -56 2 -105 -2 -130 -10z"/>
<path d="M6365 910 c-3 -5 -1 -10 4 -10 6 0 11 5 11 10 0 6 -2 10 -4 10 -3 0
-8 -4 -11 -10z"/>
<path d="M5474 864 c3 -9 6 -17 6 -20 0 -2 7 -1 15 2 23 9 18 34 -6 34 -15 0
-19 -4 -15 -16z"/>
</g>
</svg>
